<svg xmlns="http://www.w3.org/2000/svg" width="23.706" height="15.618" viewBox="0 0 23.706 15.618">
  <path id="car_7_" data-name="car (7)" d="M23.543,71.992a.482.482,0,0,0-.423-.292H20.954a.482.482,0,0,0-.423.292,3.508,3.508,0,0,0-.124.439l-1.447-4a1.677,1.677,0,0,0-1.573-1.1H6.321a1.677,1.677,0,0,0-1.573,1.1l-1.447,4a3.518,3.518,0,0,0-.124-.439.482.482,0,0,0-.423-.292H.588a.482.482,0,0,0-.423.292,2.134,2.134,0,0,0,0,1.643.482.482,0,0,0,.423.292H2.761l-.033.091a1.111,1.111,0,0,0-.761,1.054v7.338a.534.534,0,0,0,.534.534H5.188a.534.534,0,0,0,.534-.534v-2.6H17.986v2.6a.534.534,0,0,0,.534.534h2.687a.534.534,0,0,0,.534-.534V75.07a1.111,1.111,0,0,0-.76-1.054l-.033-.091H23.12a.482.482,0,0,0,.423-.292A2.134,2.134,0,0,0,23.543,71.992Zm-17.018-2.7H17.182L18.87,73.96H4.837Zm.3,7.962H4.575a.873.873,0,0,1,0-1.746H6.822a.873.873,0,0,1,0,1.746Zm12.311,0H16.886a.873.873,0,0,1,0-1.746h2.248a.873.873,0,0,1,0,1.746Z" transform="translate(-0.001 -67.324)" fill="#d5a021" stroke="#000" stroke-linecap="round" stroke-linejoin="round" stroke-width="0"/>
</svg>
