<svg xmlns="http://www.w3.org/2000/svg" width="18.721" height="18.72" viewBox="0 0 18.721 18.72">
  <g id="link" transform="translate(0 -0.019)">
    <g id="Group_406" data-name="Group 406" transform="translate(7.017 7.035)">
      <g id="Group_405" data-name="Group 405">
        <path id="Path_4696" data-name="Path 4696" d="M201.908,193.681l-1.554-1.554a.79.79,0,0,0-1.117,1.117l1.554,1.554a4.238,4.238,0,0,1-5.994,5.994l-1.554-1.554a.79.79,0,1,0-1.117,1.117l1.557,1.558a5.818,5.818,0,0,0,8.225-8.232Z" transform="translate(-191.895 -191.895)" fill="#006754"/>
      </g>
    </g>
    <g id="Group_408" data-name="Group 408" transform="translate(0 0.019)">
      <g id="Group_407" data-name="Group 407">
        <path id="Path_4697" data-name="Path 4697" d="M11.473,3.263,9.916,1.706A5.818,5.818,0,0,0,1.691,9.938l1.554,1.554a.79.79,0,0,0,1.117-1.117L2.809,8.82A4.238,4.238,0,0,1,8.8,2.827l1.554,1.554a.79.79,0,1,0,1.117-1.117Z" transform="translate(0 -0.019)" fill="#006754"/>
      </g>
    </g>
    <g id="Group_410" data-name="Group 410" transform="translate(6.569 6.588)">
      <g id="Group_409" data-name="Group 409">
        <path id="Path_4698" data-name="Path 4698" d="M185,183.9l-4-4a.79.79,0,1,0-1.117,1.117l4,4A.79.79,0,0,0,185,183.9Z" transform="translate(-179.652 -179.66)" fill="#006754"/>
      </g>
    </g>
  </g>
</svg>
